<?xml version="1.0"?>
<svg version="1.1" xmlns="http://www.w3.org/2000/svg" width="400" height="200" style=""><path fill="#ffffff" d="M18.076171875,124.90234375l0-7.71484375q0-8.0078125,0.2685546875-15.8935546875t0.4638671875-15.8935546875q0-1.513671875-0.09765625-3.369140625q-0.048828125-0.537109375-0.048828125-1.025390625q0-1.220703125,0.1953125-2.392578125q0.244140625-1.5625,1.1962890625-2.685546875t3.1494140625-1.123046875q1.806640625,0,2.7587890625,0.390625t1.3427734375,1.1474609375t0.439453125,1.904296875t0.048828125,2.6611328125q0,8.10546875-0.1953125,16.259765625q-0.146484375,5.419921875-0.146484375,10.83984375q0,2.734375,0.048828125,5.46875q0.09765625,8.10546875,0.7568359375,16.2109375t2.2216796875,16.015625q4.8828125-0.1953125,9.765625-0.48828125t9.765625-0.29296875q0.48828125,0,1.3916015625,0.09765625t1.806640625,0.341796875t1.5380859375,0.634765625t0.634765625,1.123046875q0,0.48828125-0.439453125,0.830078125t-0.830078125,0.537109375l-0.09765625,0q-0.78125,0.390625-3.1005859375,0.7568359375t-5.2734375,0.5615234375t-6.201171875,0.341796875t-6.103515625,0.244140625t-4.9560546875,0.146484375t-2.587890625,0.048828125l-0.439453125,0q-1.171875,0-2.63671875-0.390625q-1.7578125-0.48828125-2.197265625-1.904296875q-0.87890625-3.61328125-1.3916015625-7.4951171875t-0.78125-7.8857421875t-0.2685546875-8.0078125z M62.39599609375,115.478515625q0-2.880859375,0.3173828125-6.982421875t1.171875-8.544921875t2.294921875-8.837890625t3.6865234375-7.763671875t5.37109375-5.322265625q2.587890625-1.611328125,5.95703125-1.611328125q0.68359375,0,1.416015625,0.09765625q8.49609375,0.78125,13.0615234375,3.8818359375t6.6650390625,7.861328125t2.44140625,10.83984375t0.341796875,12.8173828125q0,5.419921875-1.0009765625,11.7919921875t-3.5400390625,11.8896484375t-7.0068359375,9.2041015625t-11.3525390625,3.6865234375q-4.19921875,0-7.3486328125-1.5380859375t-5.3466796875-4.1015625t-3.61328125-5.95703125t-2.1484375-7.03125t-1.0498046875-7.3486328125t-0.3173828125-7.03125z M72.30810546875,113.28125q0,2.099609375,0.048828125,5.1513671875t0.4150390625,6.4208984375t0.9521484375,6.7138671875t1.7333984375,6.0791015625t2.9052734375,4.4921875t4.248046875,1.85546875l0.244140625,0q2.24609375,0,4.00390625-1.708984375q1.85546875-1.806640625,3.2958984375-4.345703125t2.490234375-5.3466796875t1.8798828125-4.8095703125l-0.1953125,0.439453125q1.416015625-4.4921875,1.904296875-9.2041015625t0.48828125-9.3017578125q0-2.197265625-0.29296875-5.2978515625t-0.9521484375-6.4697265625t-1.708984375-6.6650390625t-2.6611328125-5.7373046875t-3.759765625-3.7109375q-1.5625-0.927734375-3.466796875-0.9765625q-0.732421875,0-1.46484375,0.146484375q-2.490234375,0.48828125-4.248046875,2.44140625t-2.8564453125,4.8095703125t-1.6845703125,6.25t-0.9033203125,6.8359375t-0.3662109375,6.591796875t-0.048828125,5.3466796875z M94.32958984375,128.3203125l0-0.09765625l0,0.09765625z M115.3095703125,108.3984375q0-3.22265625,0.2685546875-7.0556640625t0.9521484375-7.6904296875t2.05078125-7.4462890625t3.515625-6.396484375t5.2490234375-4.4677734375t7.3974609375-1.66015625q3.41796875,0,6.298828125,1.318359375t5.029296875,3.564453125t3.3447265625,5.2490234375t1.1962890625,6.2744140625q0,0.87890625-1.1962890625,1.0986328125t-1.6845703125,0.2197265625q-0.87890625,0-1.6845703125-0.146484375t-1.1962890625-1.171875q-0.68359375-1.904296875-1.4404296875-4.00390625t-1.85546875-3.8330078125t-2.7099609375-2.8564453125q-1.46484375-0.9765625-3.7109375-0.9765625l-0.390625,0q-4.1015625,0.09765625-6.103515625,2.9296875t-2.7587890625,6.884765625t-0.7568359375,8.59375l0,8.056640625q0,2.001953125,0.146484375,5.810546875t0.7080078125,8.30078125t1.46484375,9.1552734375t2.44140625,8.49609375t3.6865234375,6.25t5.17578125,2.4169921875q2.685546875,0,4.6875-1.85546875t3.4423828125-4.7607421875t2.44140625-6.494140625t1.66015625-7.2021484375t1.0009765625-6.7138671875t0.537109375-5.1025390625q-0.537109375-0.048828125-1.025390625-0.048828125q-2.294921875,0-4.4921875,0.732421875q-2.783203125,0.830078125-5.56640625,0.830078125q-0.390625,0-1.0498046875-0.048828125t-1.2451171875-0.244140625t-1.0498046875-0.5615234375t-0.4638671875-0.9521484375q0-1.123046875,2.4658203125-1.904296875t5.615234375-1.3427734375t6.0791015625-0.8056640625t3.857421875-0.244140625q0.48828125,0,1.3916015625,0.09765625t1.806640625,0.341796875t1.5380859375,0.7080078125t0.634765625,1.1474609375q0,0.5859375-0.439453125,1.0498046875t-1.0986328125,0.7080078125t-1.3427734375,0.341796875t-1.07421875,0.09765625q0.048828125,1.123046875,0.048828125,2.294921875q0,2.63671875-0.146484375,5.615234375q-0.244140625,4.296875-0.9765625,8.59375t-2.24609375,8.349609375t-3.857421875,7.1533203125t-5.7861328125,5.0048828125t-8.1787109375,1.904296875q-5.17578125,0-8.740234375-2.197265625t-5.810546875-5.859375t-3.4912109375-8.30078125t-1.7822265625-9.4970703125t-0.6591796875-9.4482421875t-0.1220703125-8.30078125z M171.00634765625,115.478515625q0-2.880859375,0.3173828125-6.982421875t1.171875-8.544921875t2.294921875-8.837890625t3.6865234375-7.763671875t5.37109375-5.322265625q2.587890625-1.611328125,5.95703125-1.611328125q0.68359375,0,1.416015625,0.09765625q8.49609375,0.78125,13.0615234375,3.8818359375t6.6650390625,7.861328125t2.44140625,10.83984375t0.341796875,12.8173828125q0,5.419921875-1.0009765625,11.7919921875t-3.5400390625,11.8896484375t-7.0068359375,9.2041015625t-11.3525390625,3.6865234375q-4.19921875,0-7.3486328125-1.5380859375t-5.3466796875-4.1015625t-3.61328125-5.95703125t-2.1484375-7.03125t-1.0498046875-7.3486328125t-0.3173828125-7.03125z M180.91845703125,113.28125q0,2.099609375,0.048828125,5.1513671875t0.4150390625,6.4208984375t0.9521484375,6.7138671875t1.7333984375,6.0791015625t2.9052734375,4.4921875t4.248046875,1.85546875l0.244140625,0q2.24609375,0,4.00390625-1.708984375q1.85546875-1.806640625,3.2958984375-4.345703125t2.490234375-5.3466796875t1.8798828125-4.8095703125l-0.1953125,0.439453125q1.416015625-4.4921875,1.904296875-9.2041015625t0.48828125-9.3017578125q0-2.197265625-0.29296875-5.2978515625t-0.9521484375-6.4697265625t-1.708984375-6.6650390625t-2.6611328125-5.7373046875t-3.759765625-3.7109375q-1.5625-0.927734375-3.466796875-0.9765625q-0.732421875,0-1.46484375,0.146484375q-2.490234375,0.48828125-4.248046875,2.44140625t-2.8564453125,4.8095703125t-1.6845703125,6.25t-0.9033203125,6.8359375t-0.3662109375,6.591796875t-0.048828125,5.3466796875z M202.93994140625,128.3203125l0-0.09765625l0,0.09765625z"/><path fill="#ffffff" d=""/></svg>
